HIERARCHY
ROOT Root
{
  OFFSET 0.0 0.0 0.0
  CHANNELS 6 Xposition Yposition Zposition Zrotation Yrotation Xrotation
  JOINT Hips
  {
    OFFSET 0.0 100.0 0.0
    CHANNELS 6 Xposition Yposition Zposition Zrotation Yrotation Xrotation
    JOINT Spine1
    {
      OFFSET -0.013727 5.003763 -0.053727
      CHANNELS 3 Zrotation Yrotation Xrotation
      JOINT Spine2
      {
        OFFSET -0.0 7.125301 -0.029825
        CHANNELS 3 Zrotation Yrotation Xrotation
        JOINT Chest
        {
          OFFSET -1e-06 7.550063 -0.815971
          CHANNELS 3 Zrotation Yrotation Xrotation
          JOINT Neck1
          {
            OFFSET -0.181677 26.311295 -0.553348
            CHANNELS 3 Zrotation Yrotation Xrotation
            JOINT Neck2
            {
              OFFSET -3e-06 7.709397 2.302585
              CHANNELS 3 Zrotation Yrotation Xrotation
              JOINT Head
              {
                OFFSET -5e-06 6.128916 1.953709
                CHANNELS 3 Zrotation Yrotation Xrotation
                JOINT HeadEnd
                {
                  OFFSET 0.003598 16.065403 -1.835379
                  CHANNELS 3 Zrotation Yrotation Xrotation
                }
                JOINT Jaw
                {
                  OFFSET 0.002637 0.475592 3.094941
                  CHANNELS 3 Zrotation Yrotation Xrotation
                }
                JOINT LeftEye
                {
                  OFFSET 3.206381 5.380205 7.586883
                  CHANNELS 3 Zrotation Yrotation Xrotation
                }
                JOINT RightEye
                {
                  OFFSET -3.22244 5.361869 7.558234
                  CHANNELS 3 Zrotation Yrotation Xrotation
                }
              }
            }
          }
          JOINT LeftShoulder
          {
            OFFSET 1.621652 23.237164 5.113413
            CHANNELS 3 Zrotation Yrotation Xrotation
            JOINT LeftArm
            {
              OFFSET 14.919846 2e-06 -5.502326
              CHANNELS 3 Zrotation Yrotation Xrotation
              JOINT LeftForeArm
              {
                OFFSET 28.739307 0.0 -0.002588
                CHANNELS 3 Zrotation Yrotation Xrotation
                JOINT LeftHand
                {
                  OFFSET 27.093981 -1e-06 0.002609
                  CHANNELS 3 Zrotation Yrotation Xrotation
                  JOINT LeftHandThumb1
                  {
                    OFFSET 2.276482 -1.392045 3.191413
                    CHANNELS 3 Zrotation Yrotation Xrotation
                    JOINT LeftHandThumb2
                    {
                      OFFSET 4.012836 -1.828127 1.641654
                      CHANNELS 3 Zrotation Yrotation Xrotation
                      JOINT LeftHandThumb3
                      {
                        OFFSET 2.798515 0.0 -3e-06
                        CHANNELS 3 Zrotation Yrotation Xrotation
                        JOINT LeftHandThumbEnd
                        {
                          OFFSET 3.180793 -4e-06 4e-06
                          CHANNELS 3 Zrotation Yrotation Xrotation
                        }
                      }
                    }
                  }
                  JOINT LeftHandIndex1
                  {
                    OFFSET 3.247555 -0.531998 2.296169
                    CHANNELS 3 Zrotation Yrotation Xrotation
                    JOINT LeftHandIndex2
                    {
                      OFFSET 6.364578 0.01206 0.1786
                      CHANNELS 3 Zrotation Yrotation Xrotation
                      JOINT LeftHandIndex3
                      {
                        OFFSET 3.662364 0.0 0.0
                        CHANNELS 3 Zrotation Yrotation Xrotation
                        JOINT LeftHandIndex4
                        {
                          OFFSET 2.329242 4e-06 4e-06
                          CHANNELS 3 Zrotation Yrotation Xrotation
                          JOINT LeftHandIndexEnd
                          {
                            OFFSET 2.759615 -0.180537 -0.113024
                            CHANNELS 3 Zrotation Yrotation Xrotation
                          }
                        }
                      }
                    }
                  }
                  JOINT LeftHandMiddle1
                  {
                    OFFSET 3.163495 0.240981 1.000332
                    CHANNELS 3 Zrotation Yrotation Xrotation
                    JOINT LeftHandMiddle2
                    {
                      OFFSET 6.19078 -0.259278 -1.002548
                      CHANNELS 3 Zrotation Yrotation Xrotation
                      JOINT LeftHandMiddle3
                      {
                        OFFSET 4.35652 -4e-06 -1e-06
                        CHANNELS 3 Zrotation Yrotation Xrotation
                        JOINT LeftHandMiddle4
                        {
                          OFFSET 2.996877 -8e-06 0.0
                          CHANNELS 3 Zrotation Yrotation Xrotation
                          JOINT LeftHandMiddleEnd
                          {
                            OFFSET 2.304287 -0.294569 -0.031741
                            CHANNELS 3 Zrotation Yrotation Xrotation
                          }
                        }
                      }
                    }
                  }
                  JOINT LeftHandRing1
                  {
                    OFFSET 2.882643 -0.053652 -0.322543
                    CHANNELS 3 Zrotation Yrotation Xrotation
                    JOINT LeftHandRing2
                    {
                      OFFSET 5.854541 -0.486202 -1.373841
                      CHANNELS 3 Zrotation Yrotation Xrotation
                      JOINT LeftHandRing3
                      {
                        OFFSET 4.350578 0.0 3e-06
                        CHANNELS 3 Zrotation Yrotation Xrotation
                        JOINT LeftHandRing4
                        {
                          OFFSET 2.651321 7e-06 2e-06
                          CHANNELS 3 Zrotation Yrotation Xrotation
                          JOINT LeftHandRingEnd
                          {
                            OFFSET 1.936105 0.077687 -7.1e-05
                            CHANNELS 3 Zrotation Yrotation Xrotation
                          }
                        }
                      }
                    }
                  }
                  JOINT LeftHandPinky1
                  {
                    OFFSET 2.8655 -0.310005 -1.600378
                    CHANNELS 3 Zrotation Yrotation Xrotation
                    JOINT LeftHandPinky2
                    {
                      OFFSET 5.087849 -1.331141 -1.77123
                      CHANNELS 3 Zrotation Yrotation Xrotation
                      JOINT LeftHandPinky3
                      {
                        OFFSET 3.070974 4e-06 0.0
                        CHANNELS 3 Zrotation Yrotation Xrotation
                        JOINT LeftHandPinky4
                        {
                          OFFSET 1.549672 0.0 1e-06
                          CHANNELS 3 Zrotation Yrotation Xrotation
                          JOINT LeftHandPinkyEnd
                          {
                            OFFSET 1.944893 -0.157802 0.057219
                            CHANNELS 3 Zrotation Yrotation Xrotation
                          }
                        }
                      }
                    }
                  }
                }
              }
            }
          }
          JOINT RightShoulder
          {
            OFFSET -1.380118 23.180309 5.214158
            CHANNELS 3 Zrotation Yrotation Xrotation
            JOINT RightArm
            {
              OFFSET -15.037196 1.2e-05 -5.545604
              CHANNELS 3 Zrotation Yrotation Xrotation
              JOINT RightForeArm
              {
                OFFSET -28.736639 2e-06 -0.002597
                CHANNELS 3 Zrotation Yrotation Xrotation
                JOINT RightHand
                {
                  OFFSET -27.133619 -0.0 0.002613
                  CHANNELS 3 Zrotation Yrotation Xrotation
                  JOINT RightHandThumb1
                  {
                    OFFSET -2.274032 -1.383988 3.163127
                    CHANNELS 3 Zrotation Yrotation Xrotation
                    JOINT RightHandThumb2
                    {
                      OFFSET -4.011429 -1.827466 1.640914
                      CHANNELS 3 Zrotation Yrotation Xrotation
                      JOINT RightHandThumb3
                      {
                        OFFSET -2.794935 -4e-06 -3e-06
                        CHANNELS 3 Zrotation Yrotation Xrotation
                        JOINT RightHandThumbEnd
                        {
                          OFFSET -3.183852 4e-06 1e-06
                          CHANNELS 3 Zrotation Yrotation Xrotation
                        }
                      }
                    }
                  }
                  JOINT RightHandIndex1
                  {
                    OFFSET -3.253266 -0.520057 2.282866
                    CHANNELS 3 Zrotation Yrotation Xrotation
                    JOINT RightHandIndex2
                    {
                      OFFSET -6.341917 0.012471 0.178266
                      CHANNELS 3 Zrotation Yrotation Xrotation
                      JOINT RightHandIndex3
                      {
                        OFFSET -3.654871 -8e-06 -0.0
                        CHANNELS 3 Zrotation Yrotation Xrotation
                        JOINT RightHandIndex4
                        {
                          OFFSET -2.327586 0.0 1e-06
                          CHANNELS 3 Zrotation Yrotation Xrotation
                          JOINT RightHandIndexEnd
                          {
                            OFFSET -2.76179 -0.180656 -0.113078
                            CHANNELS 3 Zrotation Yrotation Xrotation
                          }
                        }
                      }
                    }
                  }
                  JOINT RightHandMiddle1
                  {
                    OFFSET -3.168106 0.246593 1.00103
                    CHANNELS 3 Zrotation Yrotation Xrotation
                    JOINT RightHandMiddle2
                    {
                      OFFSET -6.180828 -0.258836 -1.000895
                      CHANNELS 3 Zrotation Yrotation Xrotation
                      JOINT RightHandMiddle3
                      {
                        OFFSET -4.348901 0.0 -0.0
                        CHANNELS 3 Zrotation Yrotation Xrotation
                        JOINT RightHandMiddle4
                        {
                          OFFSET -3.00024 -4e-06 -2e-06
                          CHANNELS 3 Zrotation Yrotation Xrotation
                          JOINT RightHandMiddleEnd
                          {
                            OFFSET -2.30252 -0.29437 -0.031706
                            CHANNELS 3 Zrotation Yrotation Xrotation
                          }
                        }
                      }
                    }
                  }
                  JOINT RightHandRing1
                  {
                    OFFSET -2.88569 -0.067952 -0.308858
                    CHANNELS 3 Zrotation Yrotation Xrotation
                    JOINT RightHandRing2
                    {
                      OFFSET -5.854198 -0.48613 -1.373731
                      CHANNELS 3 Zrotation Yrotation Xrotation
                      JOINT RightHandRing3
                      {
                        OFFSET -4.33881 -4e-06 -0.0
                        CHANNELS 3 Zrotation Yrotation Xrotation
                        JOINT RightHandRing4
                        {
                          OFFSET -2.654903 -4e-06 4e-06
                          CHANNELS 3 Zrotation Yrotation Xrotation
                          JOINT RightHandRingEnd
                          {
                            OFFSET -1.933568 0.077527 -5.2e-05
                            CHANNELS 3 Zrotation Yrotation Xrotation
                          }
                        }
                      }
                    }
                  }
                  JOINT RightHandPinky1
                  {
                    OFFSET -2.866425 -0.342796 -1.584145
                    CHANNELS 3 Zrotation Yrotation Xrotation
                    JOINT RightHandPinky2
                    {
                      OFFSET -5.091371 -1.332055 -1.772385
                      CHANNELS 3 Zrotation Yrotation Xrotation
                      JOINT RightHandPinky3
                      {
                        OFFSET -3.062664 -4e-06 1e-06
                        CHANNELS 3 Zrotation Yrotation Xrotation
                        JOINT RightHandPinky4
                        {
                          OFFSET -1.546529 4e-06 -2e-06
                          CHANNELS 3 Zrotation Yrotation Xrotation
                          JOINT RightHandPinkyEnd
                          {
                            OFFSET -1.945119 -0.157718 0.057211
                            CHANNELS 3 Zrotation Yrotation Xrotation
                          }
                        }
                      }
                    }
                  }
                }
              }
            }
          }
        }
      }
    }
    JOINT LeftLeg
    {
      OFFSET 10.043214 -8.434526 2.595655
      CHANNELS 3 Zrotation Yrotation Xrotation
      JOINT LeftShin
      {
        OFFSET -1e-06 -43.221752 -0.802913
        CHANNELS 3 Zrotation Yrotation Xrotation
        JOINT LeftFoot
        {
          OFFSET 1e-06 -42.155094 -3.481523
          CHANNELS 3 Zrotation Yrotation Xrotation
          JOINT LeftToeBase
          {
            OFFSET 0.0 -5.059472 13.231529
            CHANNELS 3 Zrotation Yrotation Xrotation
            JOINT LeftToeEnd
            {
              OFFSET -0.009607 -1.647619 6.513017
              CHANNELS 3 Zrotation Yrotation Xrotation
            }
          }
        }
      }
    }
    JOINT RightLeg
    {
      OFFSET -10.047278 -8.29526 2.620317
      CHANNELS 3 Zrotation Yrotation Xrotation
      JOINT RightShin
      {
        OFFSET 1e-06 -43.362206 -0.805556
        CHANNELS 3 Zrotation Yrotation Xrotation
        JOINT RightFoot
        {
          OFFSET 2e-06 -42.117393 -3.478398
          CHANNELS 3 Zrotation Yrotation Xrotation
          JOINT RightToeBase
          {
            OFFSET -0.0 -5.079609 13.284196
            CHANNELS 3 Zrotation Yrotation Xrotation
            JOINT RightToeEnd
            {
              OFFSET 0.009532 -1.634378 6.460591
              CHANNELS 3 Zrotation Yrotation Xrotation
            }
          }
        }
      }
    }
  }
}
MOTION
Frames: 4
Frame Time: 0.03333333333333333
0.013815 0.0 -1.491167 0.0 -0.051105 0.0 0.0 99.403557 0.0 -0.904757 -0.058754 -3.708829 1.444245 0.021049 0.344393 -0.238983 0.711962 -4.342586 -0.886747 -1.316942 10.383476 -1.669405 3.957026 9.898144 -0.182455 1.543251 -3.65155 0.219143 1.94671 -5.585118 -0.000121 0.001581 -0.000994 -0.000573 -0.092766 -0.032064 0.770164 -3.835581 -10.682761 -0.774477 3.652868 -10.663055 -22.362221 -5.507854 9.886355 -49.626854 4.684889 15.164859 0.138039 -33.676147 -0.375495 -0.316078 0.971751 9.768506 -5.862971 9.807293 0.818012 -10.940693 -0.346868 7.188496 -0.002314 8.781022 -0.0098 -15.877993 18.059591 6.217666 -1.846506 2.495314 -2.517936 -10.15983 4.682217 4.634831 -20.985777 -0.001996 -0.004526 -21.244198 2.447254 -3.616491 0.006842 0.002942 0.00222 -1.363314 2.242404 -0.74064 -21.333544 0.580848 3.004858 -13.82393 0.00139 -0.000467 -23.90535 -0.250097 -0.854776 -60.715855 2.450421 -0.853187 -0.290444 1.678301 0.834255 -14.211007 0.096314 1.29691 -34.212551 -0.27923 0.964887 -20.022623 0.969863 1.220628 -0.010812 -0.009719 -0.006967 -3.432842 0.791304 0.504353 -15.931406 -3.165705 3.01222 -6.341787 -0.003695 -0.004149 -18.115416 3.640817 -4.936371 -0.00596 -0.001672 0.019702 27.175217 12.158149 15.274658 48.374233 -7.234993 13.384254 -0.737106 29.354548 0.098438 -2.300299 -10.760675 -15.59378 2.223593 -5.192034 -3.033457 14.278036 -0.823182 6.986523 -0.005291 -12.688454 -0.00489 16.306641 -17.562155 2.589998 1.665969 -1.957049 -2.88461 4.724702 -4.169409 4.984681 11.008732 0.003888 -9.2e-05 12.08708 -3.720519 -2.881434 0.001043 -0.000737 0.000284 1.280255 -1.927759 -1.509892 14.814569 0.572558 3.868334 14.237776 -1.333861 -6.664508 19.634092 0.161447 -0.643515 50.22665 -0.352478 -6.563405 0.343412 -1.511991 -0.039852 20.225861 3.69106 2.31506 18.783445 0.014317 -0.003886 10.751264 -0.480693 1.40205 -0.009482 -0.005234 0.001777 3.258734 0.316353 -0.612315 21.509237 11.811926 2.271202 8.173071 0.008337 0.009885 18.368973 -3.782559 -4.934861 -0.000681 0.004228 0.004551 8.668086 7.905923 0.101497 -0.005278 -0.287067 11.388912 -8.483932 -6.177514 -6.502706 1.645502 -1.889995 -0.136564 2.5e-05 -0.000325 -0.000585 -6.114945 -11.383901 0.012659 -0.006293 0.297469 10.513991 8.349789 -3.013049 -5.541211 -1.410248 0.948914 -0.211384 0.001024 0.00444 0.004282 
-0.034238 0.0 -1.390826 0.0 0.329746 0.0 0.0 99.413437 0.0 -0.839251 -0.055848 -3.855425 1.453792 0.008106 0.306014 -0.238023 0.714391 -4.371047 -0.97632 -1.312868 10.369255 -1.820368 4.067334 10.503933 -0.13543 1.519946 -3.643451 0.127162 1.930458 -5.409095 -0.000841 -0.000145 -0.000591 0.001962 -0.057502 -0.010281 0.766533 -3.791957 -10.657953 -0.767915 3.679513 -10.644135 -22.457975 -5.386944 9.810009 -49.50729 4.76086 15.425881 0.021347 -34.814499 -0.31345 -0.072699 0.926387 10.418653 -5.863519 9.845685 0.760453 -10.953686 -0.395697 7.153681 -0.001133 8.761516 0.001389 -15.826998 18.022537 6.347367 -1.82593 2.487045 -2.519805 -10.161116 4.672316 4.628256 -20.964443 -0.007194 -0.015364 -21.244127 2.453897 -3.573872 0.008916 0.007052 0.007201 -1.347328 2.221156 -0.73949 -21.325232 0.588389 2.992227 -13.813797 0.004296 -0.000354 -23.890722 -0.23861 -0.82445 -60.866398 2.47863 -0.68862 -0.27173 1.656213 0.832915 -14.216089 0.10619 1.302589 -34.169094 -0.298638 0.963488 -20.017675 0.960331 1.209353 0.021551 0.003401 0.001863 -3.417847 0.753017 0.485844 -15.932158 -3.134501 3.024884 -6.338823 -0.000111 -0.01444 -18.102831 3.640103 -4.909671 -0.003069 -0.001325 0.008265 27.137573 11.883151 15.452738 47.938984 -8.07056 11.155716 -1.105701 33.909672 -0.073624 -4.239303 -9.805716 -16.890919 2.239376 -5.248182 -3.130988 14.289001 -0.816703 6.968627 0.002045 -12.684537 -0.003295 16.392365 -17.670233 2.6747 1.669597 -1.952092 -2.883096 4.724891 -4.164923 5.001106 11.013007 0.000839 -0.005509 12.098177 -3.718438 -2.855342 0.004233 -0.002789 0.00152 1.294326 -1.918092 -1.495107 14.793191 0.559806 3.857648 14.233445 -1.341088 -6.657892 19.595913 0.145528 -0.638283 50.288635 -0.332906 -6.35786 0.358833 -1.503 -0.03442 20.202932 3.674443 2.312978 18.765862 0.000393 0.011428 10.729193 -0.484544 1.395471 -0.002646 -0.001182 -0.00106 3.26701 0.324703 -0.583068 21.481312 11.78299 2.256056 8.160244 -0.001917 0.000778 18.3717 -3.780706 -4.931958 0.010395 0.000223 -0.007211 8.635004 7.561233 0.40311 -0.030976 -0.277573 11.039952 -8.408494 -6.369112 -6.518371 1.63764 -1.952742 -0.386773 0.000144 0.000173 -0.008331 -6.194835 -11.38354 0.442415 -0.025916 0.2545 10.27466 8.318383 -3.403506 -5.61739 -1.407355 0.911706 -0.417444 0.00026 0.000808 0.000164 
-0.09646 0.0 -1.298198 0.0 0.719077 0.0 0.0 99.416679 0.0 -0.782698 -0.052625 -3.967861 1.496676 0.014078 0.293325 -0.226647 0.66513 -4.423352 -1.112944 -1.279394 10.363099 -2.002633 4.314052 11.214514 -0.085558 1.469766 -3.656451 0.088717 1.764558 -5.113605 -3e-05 0.001827 -0.000544 -0.002857 -0.008738 0.01033 0.745179 -3.73242 -10.625886 -0.752591 3.712697 -10.603877 -22.766369 -5.120922 9.719908 -49.128651 4.900211 15.940582 -0.153488 -35.860168 -0.145382 0.303714 1.027504 11.095519 -5.867326 9.892961 0.683078 -10.955381 -0.394696 7.160524 -0.002955 8.758426 0.009104 -15.941262 17.95734 6.296269 -1.84732 2.495751 -2.511852 -10.150476 4.665852 4.648228 -20.966959 -0.010383 -0.012273 -21.211191 2.426498 -3.584696 -0.003912 -0.001415 0.00022 -1.359024 2.215497 -0.74608 -21.31193 0.599064 2.991363 -13.807613 -0.004533 0.001989 -23.866749 -0.241305 -0.835839 -60.718395 2.47841 -0.676284 -0.282656 1.64709 0.826501 -14.198349 0.130173 1.304863 -34.139275 -0.289229 0.965874 -20.000702 0.966157 1.208384 -0.008784 0.003361 -0.007552 -3.420211 0.74688 0.505768 -15.923572 -3.126618 2.991757 -6.332327 -0.004389 -0.000577 -18.098547 3.634304 -4.921318 0.012472 6.3e-05 0.003998 26.893656 11.59002 15.413724 47.255524 -8.741212 9.571118 -0.975216 42.159306 -0.092339 -7.772647 -7.61476 -19.077463 2.246135 -5.23424 -3.156972 14.291798 -0.808006 6.943611 -0.003378 -12.681217 -0.005064 16.187334 -17.596786 2.82252 1.65254 -1.946217 -2.883648 4.727305 -4.172967 4.998174 11.010047 0.0008 0.003682 12.090518 -3.727464 -2.861374 0.004202 0.001345 -0.000259 1.277576 -1.922196 -1.494405 14.797574 0.567783 3.863981 14.232759 -1.332707 -6.651531 19.610416 0.146594 -0.648241 50.422874 -0.475322 -6.12491 0.32651 -1.503722 -0.031057 20.227158 3.676213 2.317476 18.786842 0.006427 0.00853 10.757614 -0.484182 1.420594 0.010911 0.005791 -0.003592 3.257114 0.314869 -0.58848 21.496717 11.840068 2.282328 8.166353 0.006482 0.001137 18.392834 -3.801665 -4.944751 0.011172 0.001914 -0.003601 8.611743 7.147567 0.636614 -0.05672 -0.277559 10.761169 -8.323245 -6.481647 -6.316576 1.622555 -2.022094 -0.468447 -8e-06 0.000178 0.002606 -6.245176 -11.389572 0.794941 -0.046885 0.211943 10.133673 8.282543 -3.761389 -5.780194 -1.394395 0.897918 -0.550101 0.000489 -0.003375 0.006883 
-0.181061 0.0 -1.276297 0.0 0.826004 0.0 0.0 99.418694 0.0 -0.78132 -0.053389 -4.05529 1.569796 -0.029003 0.368333 -0.209942 0.729493 -4.430298 -1.236842 -1.294783 10.246982 -2.291132 4.634337 12.143906 -0.022656 1.350775 -3.669647 -0.044853 1.618238 -4.717297 0.00084 -0.001608 -1.3e-05 -0.001433 0.019447 0.015704 0.727211 -3.684684 -10.611259 -0.738735 3.737318 -10.5807 -22.820415 -4.972473 9.447133 -48.954342 5.120001 16.866388 -0.246242 -36.261131 0.018534 0.629402 1.180983 11.201532 -5.895213 9.805718 0.800666 -10.912697 -0.351824 7.184693 0.000637 8.779792 0.001499 -16.097971 17.916473 6.165798 -1.846336 2.492795 -2.511319 -10.162631 4.683238 4.617988 -20.981764 -0.001834 -0.0004 -21.240677 2.439097 -3.600751 -0.000472 0.005628 0.008615 -1.369924 2.237027 -0.750113 -21.342857 0.586707 2.994651 -13.829468 0.004066 0.005887 -23.896996 -0.251316 -0.850639 -60.663933 2.329612 -0.775279 -0.286439 1.673236 0.8215 -14.236261 0.098025 1.321754 -34.249054 -0.290857 0.967939 -20.052477 0.957978 1.215598 0.001627 -0.014134 -0.001006 -3.463723 0.800868 0.488089 -15.924476 -3.183774 3.008963 -6.347004 -0.002262 -0.002263 -18.170031 3.647447 -4.903612 0.009657 0.001148 0.001411 25.75666 11.508709 15.297033 46.145523 -7.647385 10.288504 -0.571687 52.544239 0.048242 -11.511756 -4.429244 -20.083858 2.255367 -5.188425 -3.112409 14.278076 -0.847956 6.960499 0.003911 -12.716772 -0.00662 15.926241 -17.74962 2.754513 1.671536 -1.961632 -2.888787 4.732234 -4.168359 4.990241 11.02903 0.002654 -0.0029 12.129809 -3.746133 -2.865858 -0.005288 -0.00187 -0.00519 1.292073 -1.938708 -1.508816 14.808763 0.59106 3.873069 14.256251 -1.363801 -6.670777 19.656843 0.133022 -0.645334 50.368553 -0.711873 -6.11554 0.357965 -1.532416 -0.045237 20.237391 3.720872 2.336597 18.813023 0.009688 -0.000891 10.754494 -0.491032 1.381432 0.001301 0.004462 0.009428 3.283684 0.286692 -0.600762 21.500845 11.858047 2.276422 8.176874 0.002149 0.010428 18.453079 -3.800511 -4.935594 -0.002281 -0.00505 -0.005001 8.652837 6.871854 0.821267 -0.070395 -0.302347 10.576401 -8.248338 -6.434764 -6.370428 1.614856 -2.068303 -0.414949 -5.4e-05 -0.000176 0.001888 -6.195659 -11.359112 0.966652 -0.07738 0.17186 10.087058 8.273765 -3.867548 -5.866323 -1.38321 0.938536 -0.660119 -0.001256 -0.002758 0.005996 
